<?xml version="1.0" encoding="UTF-8" standalone="no"?>
<!-- Created with Inkscape (http://www.inkscape.org/) -->

<svg
   width="92"
   height="92"
   viewBox="0 0 92.000001 92.000004"
   version="1.1"
   id="svg1"
   inkscape:version="1.4 (e7c3feb100, 2024-10-09)"
   sodipodi:docname="rock.svg"
   xmlns:inkscape="http://www.inkscape.org/namespaces/inkscape"
   xmlns:sodipodi="http://sodipodi.sourceforge.net/DTD/sodipodi-0.dtd"
   xmlns:xlink="http://www.w3.org/1999/xlink"
   xmlns="http://www.w3.org/2000/svg"
   xmlns:svg="http://www.w3.org/2000/svg">
  <sodipodi:namedview
     id="namedview1"
     pagecolor="#505050"
     bordercolor="#ffffff"
     borderopacity="1"
     inkscape:showpageshadow="0"
     inkscape:pageopacity="0"
     inkscape:pagecheckerboard="1"
     inkscape:deskcolor="#505050"
     inkscape:document-units="px"
     inkscape:zoom="2.8284271"
     inkscape:cx="-51.972348"
     inkscape:cy="85.383144"
     inkscape:window-width="1920"
     inkscape:window-height="1020"
     inkscape:window-x="0"
     inkscape:window-y="0"
     inkscape:window-maximized="1"
     inkscape:current-layer="layer1" />
  <defs
     id="defs1">
    <linearGradient
       id="linearGradient39"
       inkscape:collect="always">
      <stop
         style="stop-color:#9c9c9c;stop-opacity:1;"
         offset="0"
         id="stop38" />
      <stop
         style="stop-color:#959595;stop-opacity:1;"
         offset="1"
         id="stop39" />
    </linearGradient>
    <linearGradient
       id="linearGradient35"
       inkscape:collect="always">
      <stop
         style="stop-color:#b3b3b3;stop-opacity:1;"
         offset="0"
         id="stop36" />
      <stop
         style="stop-color:#9a9a9a;stop-opacity:1;"
         offset="1"
         id="stop37" />
    </linearGradient>
    <linearGradient
       id="linearGradient8"
       inkscape:collect="always">
      <stop
         style="stop-color:#9c9c9c;stop-opacity:1;"
         offset="0"
         id="stop8" />
      <stop
         style="stop-color:#959595;stop-opacity:1;"
         offset="1"
         id="stop9" />
    </linearGradient>
    <inkscape:path-effect
       effect="roughen"
       id="path-effect2"
       is_visible="true"
       lpeversion="1.2"
       global_randomize="1;1"
       displace_x="1;1"
       displace_y="0.119957;1"
       method="segments"
       max_segment_size="1"
       segments="12"
       handles="along"
       shift_nodes="true"
       fixed_displacement="false"
       spray_tool_friendly="false" />
    <inkscape:path-effect
       effect="roughen"
       id="path-effect1"
       is_visible="true"
       lpeversion="1.2"
       global_randomize="1.5;1"
       displace_x="1;1"
       displace_y="1;1"
       method="segments"
       max_segment_size="1"
       segments="36"
       handles="along"
       shift_nodes="true"
       fixed_displacement="false"
       spray_tool_friendly="false" />
    <inkscape:path-effect
       effect="roughen"
       id="path-effect1-2"
       is_visible="true"
       lpeversion="1.2"
       global_randomize="1.5;1"
       displace_x="1;1"
       displace_y="1;1"
       method="segments"
       max_segment_size="1"
       segments="24"
       handles="along"
       shift_nodes="true"
       fixed_displacement="false"
       spray_tool_friendly="false" />
    <inkscape:path-effect
       effect="roughen"
       id="path-effect2-2"
       is_visible="true"
       lpeversion="1.2"
       global_randomize="1;1"
       displace_x="1;1"
       displace_y="0.119957;1"
       method="segments"
       max_segment_size="1"
       segments="12"
       handles="along"
       shift_nodes="true"
       fixed_displacement="false"
       spray_tool_friendly="false" />
    <inkscape:path-effect
       effect="roughen"
       id="path-effect2-2-3"
       is_visible="true"
       lpeversion="1.2"
       global_randomize="1;1"
       displace_x="1;1"
       displace_y="0.119957;1"
       method="segments"
       max_segment_size="1"
       segments="12"
       handles="along"
       shift_nodes="true"
       fixed_displacement="false"
       spray_tool_friendly="false" />
    <inkscape:path-effect
       effect="roughen"
       id="path-effect2-2-31"
       is_visible="true"
       lpeversion="1.2"
       global_randomize="1;1"
       displace_x="1;1"
       displace_y="0.119957;1"
       method="segments"
       max_segment_size="1"
       segments="12"
       handles="along"
       shift_nodes="true"
       fixed_displacement="false"
       spray_tool_friendly="false" />
    <linearGradient
       inkscape:collect="always"
       xlink:href="#linearGradient8"
       id="linearGradient9"
       x1="20.08979"
       y1="18.501453"
       x2="20.08979"
       y2="36.855267"
       gradientUnits="userSpaceOnUse"
       gradientTransform="translate(0.70710678)" />
    <linearGradient
       inkscape:collect="always"
       xlink:href="#linearGradient8"
       id="linearGradient11"
       x1="43.166676"
       y1="38.710258"
       x2="43.166676"
       y2="54.007668"
       gradientUnits="userSpaceOnUse" />
    <linearGradient
       inkscape:collect="always"
       xlink:href="#linearGradient39"
       id="linearGradient13"
       x1="55.219482"
       y1="17.881706"
       x2="55.219482"
       y2="34.712162"
       gradientUnits="userSpaceOnUse" />
    <linearGradient
       inkscape:collect="always"
       xlink:href="#linearGradient8"
       id="linearGradient15"
       x1="64.485504"
       y1="27.703857"
       x2="64.485504"
       y2="43.529945"
       gradientUnits="userSpaceOnUse"
       gradientTransform="translate(-1.9445437,0.1767767)" />
    <linearGradient
       inkscape:collect="always"
       xlink:href="#linearGradient8"
       id="linearGradient17"
       x1="58.323563"
       y1="44.164162"
       x2="58.323563"
       y2="61.449989"
       gradientUnits="userSpaceOnUse" />
    <linearGradient
       inkscape:collect="always"
       xlink:href="#linearGradient8"
       id="linearGradient18"
       x1="47.743137"
       y1="28.191013"
       x2="47.743137"
       y2="67.805862"
       gradientUnits="userSpaceOnUse" />
    <radialGradient
       inkscape:collect="always"
       xlink:href="#linearGradient35"
       id="radialGradient25"
       cx="47.767792"
       cy="47.946411"
       fx="47.767792"
       fy="47.946411"
       r="22.923916"
       gradientTransform="matrix(1,0,0,1.1841535,0,-8.8294982)"
       gradientUnits="userSpaceOnUse" />
    <radialGradient
       inkscape:collect="always"
       xlink:href="#linearGradient35"
       id="radialGradient27"
       cx="58.322945"
       cy="52.785065"
       fx="58.322945"
       fy="52.785065"
       r="10.143789"
       gradientTransform="matrix(1,0,0,1.0645497,0,-3.40726)"
       gradientUnits="userSpaceOnUse" />
    <radialGradient
       inkscape:collect="always"
       xlink:href="#linearGradient35"
       id="radialGradient29"
       cx="64.48468"
       cy="35.617455"
       fx="64.48468"
       fy="35.617455"
       r="9.4161263"
       gradientTransform="matrix(1,0,0,1.1653005,-1.9445437,-5.7108066)"
       gradientUnits="userSpaceOnUse" />
    <radialGradient
       inkscape:collect="always"
       xlink:href="#linearGradient35"
       id="radialGradient31"
       cx="43.169113"
       cy="46.355648"
       fx="43.169113"
       fy="46.355648"
       r="9.1518373"
       gradientTransform="matrix(1,0,0,0.83122019,0,7.8238977)"
       gradientUnits="userSpaceOnUse" />
    <radialGradient
       inkscape:collect="always"
       xlink:href="#linearGradient35"
       id="radialGradient33"
       cx="20.070681"
       cy="27.684311"
       fx="20.070681"
       fy="27.684311"
       r="10.694368"
       gradientTransform="matrix(1,0,0,1.0982264,0,-2.7193305)"
       gradientUnits="userSpaceOnUse" />
    <radialGradient
       inkscape:collect="always"
       xlink:href="#linearGradient35"
       id="radialGradient35"
       cx="55.221478"
       cy="26.294979"
       fx="55.221478"
       fy="26.294979"
       r="9.9148912"
       gradientTransform="matrix(1,0,0,1.050968,0,-1.3402035)"
       gradientUnits="userSpaceOnUse" />
    <radialGradient
       inkscape:collect="always"
       xlink:href="#linearGradient35"
       id="radialGradient37"
       cx="46.400921"
       cy="45.901501"
       fx="46.400921"
       fy="45.901501"
       r="36.709166"
       gradientTransform="matrix(1,0,0,0.98651075,0,0.61917671)"
       gradientUnits="userSpaceOnUse" />
  </defs>
  <g
     inkscape:label="Layer 1"
     inkscape:groupmode="layer"
     id="layer1">
    <path
       style="fill:#8c8c8c;stroke:#666666;stroke-width:5;stroke-linecap:butt;stroke-linejoin:round;stroke-dasharray:none;stroke-opacity:1;paint-order:markers stroke fill;fill-opacity:1"
       id="path1"
       d="m 88.940155,46.332039 c 0,0.644332 -1.237516,0.545049 -1.266226,1.182294 -0.317279,0.355947 0.780239,1.691659 0.70615,2.445553 0.80927,0.777824 -0.341615,0.895087 -0.428244,1.49705 -0.311939,0.399854 -0.413825,1.214387 -0.554259,1.923603 -0.320364,0.448219 -0.296247,1.315749 -0.460161,1.974626 -0.165332,0.585314 -0.07986,1.331754 -0.255471,1.925399 0.06378,0.702727 -0.62621,0.695279 -0.819233,1.258102 -0.508109,0.233176 -0.03912,1.525147 -0.304229,2.189737 0.21628,0.74255 -0.461485,1.131081 -0.711846,1.687088 -0.246061,0.55581 -0.273674,1.232039 -0.546165,1.773869 -0.03532,0.671377 -0.523285,1.086785 -0.818352,1.614757 -0.264673,0.543007 -0.564294,1.060642 -0.884065,1.578431 -0.279956,0.524609 -0.969929,0.15266 -1.313487,0.658331 -0.750871,-0.240649 -1.147966,0.746399 -1.615184,1.367146 -0.66526,0.01162 -0.416064,1.086018 -0.841289,1.608802 -0.01781,0.536243 -0.825878,1.047815 -1.268103,1.54919 -0.363457,0.463253 -0.75001,0.898427 -1.155011,1.326171 -0.370406,0.452271 -0.744454,0.898236 -1.166029,1.312752 -0.3495,0.465525 0.423767,0.894216 -0.01622,1.296005 0.619885,0.670535 -1.501905,0.169867 -2.213966,0.735432 -0.742555,-0.550481 -1.088058,0.977716 -1.705646,1.428974 -0.385198,0.407763 -0.941219,0.747939 -1.446787,1.092159 -0.446785,0.374709 -0.228616,0.971636 -0.734443,1.291963 0.125842,0.712056 -1.303224,0.680595 -1.97154,1.053382 -0.547765,0.187745 -1.073208,0.521386 -1.62221,0.799598 -0.54218,0.211706 -1.181912,0.326201 -1.737041,0.582382 -0.637971,0.03848 -1.251042,0.276398 -1.805751,0.512987 -0.692375,0.0093 -1.138387,-0.07485 -1.678735,0.14222 -0.669192,-0.283802 -1.295816,0.38718 -1.902905,0.627066 -0.638393,0.119518 -1.131633,0.405015 -1.683197,0.617622 -0.590664,0.186708 -1.280309,-0.30916 -1.84181,-0.104064 -0.783554,-0.509723 -0.42857,0.740388 -1.045238,0.994768 0.113012,0.55156 -1.295833,0.728121 -2.101286,0.966598 -0.426222,0.345361 -0.915132,0.589803 -1.575599,0.701787 -0.330894,0.378737 -0.694987,0.212103 -1.451153,0.195521 -0.707245,-0.01551 -2.456849,-0.616307 -2.992857,-0.616307 -0.644332,0 -1.008335,0.123325 -1.64515,0.09533 -0.456889,0.105218 -1.708904,-1.147194 -2.432268,-1.216058 -0.748801,-1.111975 -0.916932,-0.0241 -1.413565,-0.08803 -0.554824,-0.0027 -0.699708,-0.160176 -1.329638,-0.268942 -0.20791,-0.117304 -1.766383,-0.540522 -2.534806,-0.715613 -0.710732,-0.364612 -0.612192,0.03439 -1.10831,-0.09662 -0.329072,0.08187 -1.578662,-0.564492 -2.283937,-0.789189 -0.652128,-0.328023 -1.062387,-0.388386 -1.560052,-0.566689 -0.587968,-0.248487 -1.392933,-1.301657 -1.916186,-1.511924 -0.675901,-1.048334 -0.9021,-0.669002 -1.24192,-0.81479 -0.640644,-0.570882 -1.115903,-1.120547 -1.533179,-1.313756 -0.623821,-0.914419 -0.810772,-0.897601 -1.159241,-1.068641 -0.513914,-0.766718 -0.873655,-1.503375 -1.274126,-1.712736 -0.397695,-1.274242 -0.694968,-0.864717 -1.027166,-1.046369 -0.436665,-0.735748 -0.797718,-0.431816 -1.203064,-0.665461 -0.461909,-0.256862 0.209439,-0.329869 -0.265536,-0.622611 0.411106,-0.235247 -1.048656,-0.87777 -1.788383,-1.383733 -0.085,-0.298371 -1.257217,-2.106166 -1.806413,-2.513418 -0.346784,-1.480693 -0.463163,-0.369031 -0.676193,-0.530719 -0.455112,-0.368643 -0.572604,-0.435173 -0.981689,-0.761864 -0.24133,-0.196239 -1.047508,-0.862999 -1.534806,-1.281356 -0.437589,-0.386015 -0.173688,-0.502872 -0.554641,-0.852337 0.0821,-0.303732 -1.038083,-0.977033 -1.544319,-1.485827 -0.373207,-0.380295 -0.10934,-0.628879 -0.477202,-1.028931 0.168646,-0.374851 -0.983012,-1.09555 -1.446879,-1.649637 C 10.606283,63.192526 10.0799,62.452897 9.7525421,62.028741 9.2776446,61.33857 9.6005004,61.525931 9.3559375,61.185913 9.3261133,60.815898 8.7001465,60.194347 8.3386605,59.632518 8.119853,59.221691 7.9225114,58.79041 7.6201499,58.260831 7.524128,57.88033 7.355283,57.391626 7.0580849,56.794962 7.1166076,56.446976 7.2194003,55.791324 6.9248263,55.119469 7.4015086,54.697926 6.0321895,52.993973 5.6966192,52.241312 5.2960507,51.200482 5.4984162,51.678101 5.3674467,51.372758 5.1984002,50.855093 4.6765563,49.840089 4.4747637,49.267422 4.097029,48.39879 5.0126215,48.46613 4.941483,48.033472 c -0.094383,-0.57403 -0.1383366,-0.957003 -0.1383366,-1.71155 0,-0.644332 0.013889,-1.747041 0.041394,-2.38477 0.020853,-0.945028 -0.035611,-1.071954 7.758e-4,-1.550919 -0.039582,-0.706885 0.5767612,-1.151842 0.6463831,-1.743836 0.5459021,-0.571838 0.1025485,-1.330363 0.1996564,-1.937231 0.038403,-0.685324 0.1642742,-2.183545 0.2798004,-2.756838 0.023146,-1.303792 0.1650801,-0.521779 0.2268338,-0.799369 0.185484,-0.573957 0.5536997,-1.069211 0.7148197,-1.667457 0.4341047,-0.46599 0.2481369,-1.547492 0.4384033,-2.146607 0.061343,-0.819866 0.1728322,-1.241404 0.3457344,-1.722745 0.036874,-0.777596 1.2034766,-0.692727 1.4073342,-1.194483 1.0492473,-0.223893 0.357678,-1.296245 0.6031446,-1.835067 0.1275002,-0.701246 0.3263317,-1.1825 0.5743647,-1.673572 0.114421,-0.688749 0.515876,-1.020666 0.79255,-1.514136 0.2855,-0.534123 0.63717,-1.037591 0.952606,-1.54353 0.353367,-0.503274 0.895674,-0.961034 1.231419,-1.447515 0.5734,-0.420926 0.347353,-1.597768 0.682761,-2.041748 -0.0057,-1.070688 0.572997,-1.163652 0.878718,-1.534743 0.309205,-0.795422 1.515091,-0.48774 1.857616,-0.865509 1.176673,-0.06022 0.61057,-1.662014 0.944188,-2.002842 0.231566,-1.235385 0.535307,-0.693108 0.815096,-0.958491 0.416937,-0.550976 0.866101,-0.804552 1.313529,-1.181189 0.475171,-0.406742 1.801601,-0.448239 2.299617,-0.815795 1.19397,0.07445 0.600537,-0.67508 0.96541,-0.924356 0.389471,-0.5012511 1.642642,-0.3528456 2.166359,-0.6687529 1.027978,0.079157 0.743032,-0.5823475 1.159121,-0.8142711 0.454145,-0.3927547 0.958121,-1.7448324 1.505766,-2.0145547 0.331388,-1.3835342 0.625786,-0.8628611 1.089189,-1.0491756 0.374616,-0.7010835 2.276487,-0.3818446 2.969587,-0.5662527 1.257837,0.020329 1.217963,0.064051 1.533562,-0.00672 1.024511,0.1271591 1.013967,-0.079741 1.441189,-0.1593698 0.720414,-1.643e-4 1.418227,-0.095344 1.981925,-0.1775391 0.807895,0.028915 1.21168,-0.016667 1.735136,-0.080579 0.726697,0.062492 1.168873,-0.1102711 1.745004,-0.1761397 0.62724,-0.037878 1.956068,0.049107 2.597807,-0.00878 1.215086,0.1430017 1.530973,0.09093 1.887112,0.025258 0.506325,-0.093366 1.117218,-0.3694516 1.986159,-0.3694516 0.644332,0 2.421733,0.1708485 3.057759,0.199539 1.389082,0.1677164 0.801819,0.2518099 1.052164,0.2675738 0.819859,0.2596879 1.218755,0.2127866 1.732292,0.2641627 0.732806,0.1930807 1.040358,0.056875 1.583643,0.1330858 0.572863,0.024563 1.174041,-0.04074 1.794227,0.076053 0.561318,-0.1106304 1.636561,0.5172642 2.269384,0.6694526 0.811034,0.3692365 1.019317,0.3073923 1.472951,0.4339803 0.645717,0.2298089 0.862352,-0.3314848 1.396001,-0.1571797 0.493605,-0.4130311 1.395396,0.420433 2.090285,0.6957478 0.556763,0.1628015 1.151871,0.4598688 1.720811,0.7202185 0.549282,0.2379051 0.939044,0.1419383 1.482847,0.4251198 0.471142,-0.048785 1.278037,0.6909058 1.899499,1.0647436 0.522959,0.314583 1.134207,0.7141398 1.640128,1.054706 0.567101,0.3884235 0.800328,0.4946935 1.255259,0.8328215 0.408013,0.252458 1.326997,1.011011 1.846076,1.443032 0.637656,0.509346 1.025045,0.858317 1.393803,1.191016 0.630721,0.542525 1.192913,0.966264 1.54195,1.306827 0.774014,0.597458 0.586788,0.582283 0.875022,0.883419 0.416917,0.43579 1.913041,1.029469 2.312188,1.490676 1.301824,0.393434 0.60705,0.644111 0.820826,0.908203 0.517737,0.560532 0.584802,0.748851 0.91014,1.199066 0.297198,0.429164 0.760073,1.100087 1.124327,1.682548 0.311589,0.512822 0.656444,1.088112 0.963157,1.651803 0.292848,0.541126 0.688966,1.206976 0.958081,1.776686 0.351111,0.616699 0.440915,0.991989 0.661156,1.527834 0.205163,0.53465 0.433715,1.018971 0.647478,1.6305 0.183537,0.458892 0.251404,0.778239 0.443486,1.437801 0.03939,0.240141 0.45919,1.536665 0.646003,2.329877 0.175937,0.597593 0.2227,1.131105 0.34179,1.732824 0.07862,0.567953 0.111641,0.930424 0.215869,1.560495 -0.0072,0.391948 0.145106,1.326957 0.246398,2.057226 0.0087,0.54801 1.002876,1.400785 1.082892,2.055589 0.901291,0.70562 0.05237,0.995345 0.04502,1.578256 -0.05028,0.502857 0.388216,1.677707 0.334853,2.375787 0.394422,0.908941 -0.474079,0.551326 -0.620212,1.076495 -0.166766,0.599314 0.88938,2.104349 0.88938,2.743214 z"
       sodipodi:type="arc"
       sodipodi:ry="42"
       sodipodi:rx="42"
       sodipodi:cy="46"
       sodipodi:cx="46"
       inkscape:path-effect="#path-effect1" />
    <path
       style="fill:url(#radialGradient37);fill-opacity:1;stroke:none;stroke-width:5;stroke-linecap:butt;stroke-linejoin:round;stroke-dasharray:none;stroke-opacity:1;paint-order:markers stroke fill"
       id="path1-7"
       d="m 82.615234,46.328125 c 0,0.828427 -0.926068,0.914006 -0.981139,1.728468 -0.346153,0.527984 0.707495,2.031776 0.575315,2.948898 0.754534,0.963679 -0.464805,1.262403 -0.632912,2.040805 -0.396614,0.551615 -0.596852,1.512825 -0.84848,2.362768 -0.426316,0.584513 -0.519509,1.58332 -0.811418,2.367665 -0.288632,0.716714 -0.336411,1.589283 -0.654637,2.303108 -0.08122,0.835401 -0.926402,0.954343 -1.284173,1.636626 -0.671873,0.310902 -0.375048,1.67434 -0.820075,2.4032 0.02666,0.856528 -0.851117,1.351229 -1.311059,2.004795 -0.439002,0.630633 -0.667619,1.374103 -1.148489,1.97491 -0.255166,0.745122 -0.972166,1.224835 -1.504545,1.807007 -0.490706,0.583566 -1.02394,1.132271 -1.584037,1.671043 -0.520133,0.544541 -1.457193,0.182397 -2.053832,0.687156 -0.973135,-0.324643 -1.593252,0.574492 -2.283836,1.101347 -0.887983,-0.04656 -0.860987,0.968049 -1.507994,1.426817 -0.293583,0.51356 -1.38373,0.996081 -2.113045,1.458655 -0.615069,0.429053 -1.257384,0.822244 -1.921334,1.19802 -0.63181,0.401686 -1.27111,0.786552 -1.960636,1.12735 -0.626072,0.395115 -0.134101,0.739065 -0.858262,1.03998 0.264871,0.489933 -2.30219,-0.225497 -3.493516,0.08924 -0.95253,-0.806242 -1.508416,0.513539 -2.325622,0.77138 -0.670684,0.295491 -1.516582,0.529416 -2.299719,0.748777 -0.744234,0.261722 -0.821242,0.717269 -1.593669,0.851567 -0.850327,0.147842 -2.451989,-0.185849 -3.215423,-0.185849 -0.828428,0 -1.652624,-0.08966 -2.467028,-0.144372 -0.813207,-0.11634 -1.70828,-0.3481 -2.50348,-0.454852 -0.847085,-0.313693 -1.655812,-0.443882 -2.39304,-0.589642 -0.866663,-0.359284 -1.476112,-0.827052 -2.16903,-1.006665 -0.751223,-0.704397 -1.449538,-0.472581 -2.117966,-0.685884 -0.781444,-0.320898 -1.408115,-0.493391 -2.082881,-0.752302 -0.728138,-0.299762 -1.544761,-1.29754 -2.221862,-1.605219 -0.705704,-0.990531 -0.272272,-0.253919 -0.806562,-0.526694 -0.08574,-0.205165 -1.604756,-0.798741 -2.469651,-1.328099 -0.510801,-0.267818 -1.032702,-0.620535 -1.705248,-1.094157 -0.364863,-0.247599 -0.645838,-0.961336 -1.335038,-1.522732 0.05271,-0.512431 -1.738829,-1.699511 -2.440288,-2.353388 -0.701599,-0.863042 -0.544337,-0.642493 -0.943203,-1.044105 -0.308494,-0.451774 -1.402453,-2.260628 -1.955708,-2.88531 -0.533024,-1.387595 -0.482631,-0.568439 -0.757839,-0.894643 -0.419092,-0.517614 -0.414605,-1.182837 -0.879744,-1.794171 0.05579,-0.664365 -1.231435,-1.624615 -1.715753,-2.329558 -0.570258,-0.777757 -0.320178,-0.787017 -0.652087,-1.323418 -0.07183,-0.475368 -1.053797,-1.681526 -1.471397,-2.470258 -0.466886,-0.772439 -0.674841,-1.275659 -0.95045,-1.897968 C 11.587976,54.449494 11.041575,52.907398 10.805938,52.204537 10.314578,50.81691 10.302044,50.897712 10.198801,50.473726 9.8017923,49.338211 9.6968303,48.3748 9.6918489,47.715111 c -0.00516,-0.683799 0.2041472,-1.245418 0.2041472,-2.280632 0,-0.828427 -0.030339,-2.746253 0.025077,-3.558834 -0.027932,-1.545173 0.049418,-1.401284 0.09649,-1.843103 0.04779,-1.144715 0.182626,-1.239486 0.284011,-1.861127 0.160566,-0.774301 1.473453,-1.347546 1.657877,-2.122437 1.360247,-0.495536 0.854866,-1.372822 1.072211,-2.086379 0.697999,-0.616771 0.319161,-2.722101 0.57215,-3.405011 -0.0026,-1.665419 0.228429,-0.733868 0.365917,-1.070955 0.253819,-0.748697 0.859343,-1.175137 1.186277,-1.840782 0.612539,-0.494816 0.67201,-1.435167 1.060452,-2.100773 0.34052,-0.700144 1.395631,-1.107736 1.817838,-1.723671 1.000441,-0.385596 0.802601,-1.114116 1.22014,-1.649907 0.473992,-0.589867 1.595252,-1.021274 2.093749,-1.576392 1.079222,-0.328492 0.840712,-0.973975 1.288936,-1.422749 0.504037,-0.56422 0.857255,-1.398639 1.416471,-1.887737 0.341408,-0.846149 1.491423,-0.786644 2.084459,-1.22599 0.920444,-0.251418 1.245763,-0.72177 1.833797,-1.098266 0.740144,-0.312435 1.504898,-0.610188 2.166217,-0.969871 0.865242,-0.169737 1.658296,-0.410091 2.320718,-0.720088 1.000184,-0.02751 2.04591,-0.320749 2.688681,-0.59004 1.317742,0.03392 0.812291,-1.167783 1.334328,-1.381491 0.473603,-1.017268 1.552202,-0.459059 2.314491,-0.638101 0.832632,-0.104309 1.308019,-0.6819431 2.105626,-0.7817377 0.596951,-0.4720802 2.520957,0.069448 3.470526,0.1311967 0.788909,0.0513 1.592722,0.311688 2.430711,0.311688 0.828427,0 1.648925,-0.4340937 2.460714,-0.3800941 0.832976,-0.4061085 1.57164,0.032578 2.38544,0.1447901 0.753929,0.0086 2.141192,0.305204 2.958442,0.479607 1.101255,0.177866 1.193355,0.181677 1.805892,0.348991 0.740082,0.113927 1.543352,-0.56141 2.311391,-0.289554 0.857718,-0.7081658 1.813122,0.708474 2.665963,1.10219 0.758757,0.364813 1.673725,0.828077 2.354617,1.206545 0.870124,0.48116 1.095344,0.358948 1.671812,0.730134 0.64757,0.149733 1.316531,0.724485 2.01733,1.26391 0.551399,0.274994 2.202613,1.437394 2.860254,2.035647 1.194399,0.666389 0.628973,0.485415 0.981738,0.838497 0.507608,0.414408 1.052315,1.06748 1.61192,1.727214 0.413197,0.476063 1.079829,1.325932 1.58781,2.028767 0.447891,0.621463 0.931586,1.282793 1.348562,1.948992 0.444253,0.650178 1.047736,1.35235 1.414926,2.030544 0.600628,0.677747 0.373072,0.603289 0.678768,1.264041 0.126934,0.233145 0.801345,1.475608 1.164486,2.462402 0.288608,0.433802 1.444119,1.993338 1.70558,2.88109 1.030936,0.899281 0.288119,0.254521 0.417766,0.866832 0.181477,0.09495 0.369323,2.039746 0.484786,3.206487 0.06705,0.673801 0.136833,1.655617 0.180899,2.506245 0.03756,0.791143 0.9035,1.93651 0.922419,2.729454 0.853702,1.148359 -0.275188,1.380734 -0.464858,2.074606 -0.214986,0.786489 0.285431,2.014019 0.285431,2.798866 z"
       sodipodi:type="arc"
       sodipodi:ry="36"
       sodipodi:rx="36"
       sodipodi:cy="46"
       sodipodi:cx="46"
       inkscape:path-effect="#path-effect1-2"
       transform="translate(-3.5825358e-4,0.35371312)" />
    <path
       sodipodi:type="star"
       style="fill:url(#radialGradient25);fill-opacity:1;stroke:url(#linearGradient18);stroke-width:6.17875517;stroke-linecap:butt;stroke-linejoin:round;stroke-dasharray:none;stroke-opacity:1;paint-order:markers stroke fill"
       id="path3"
       inkscape:flatsided="false"
       sodipodi:sides="3"
       sodipodi:cx="46.669048"
       sodipodi:cy="43.487068"
       sodipodi:r1="19.300259"
       sodipodi:r2="24.58375"
       sodipodi:arg1="0.14707833"
       sodipodi:arg2="1.1942758"
       inkscape:rounded="0.27926979"
       inkscape:randomized="0.2285684"
       d="M 67.397461,46.634488 C 68.526714,52.154273 63.206807,67.779757 58.095022,71.394589 52.983236,75.009422 43.820257,62.576714 38.850532,59.707602 33.880808,56.838491 27.647223,42.958975 27.946063,36.484043 c 0.298839,-6.474933 7.190539,-4.367233 13.218212,-6.757932 6.027671,-2.390699 17.066063,-8.177932 22.910433,-4.683488 5.844371,3.494445 2.1935,16.072079 3.322753,21.591865 z"
       inkscape:transform-center-x="-2.5240183"
       inkscape:transform-center-y="0.70968541"
       transform="matrix(0.5632559,0.24997651,-0.15518407,0.34966623,17.283692,36.500221)" />
    <path
       sodipodi:type="star"
       style="fill:url(#radialGradient35);fill-opacity:1;stroke:url(#linearGradient13);stroke-width:3;stroke-linecap:butt;stroke-linejoin:round;stroke-dasharray:none;stroke-opacity:1;paint-order:markers stroke fill"
       id="path4"
       inkscape:flatsided="false"
       sodipodi:sides="3"
       sodipodi:cx="54.800777"
       sodipodi:cy="26.516504"
       sodipodi:r1="9.8234415"
       sodipodi:r2="7.7122068"
       sodipodi:arg1="1.0427219"
       sodipodi:arg2="2.0899194"
       inkscape:rounded="0.27926979"
       inkscape:randomized="0.2285684"
       d="m 59.943168,34.84625 c -2.038216,1.696282 -7.432525,-2.910533 -10.140391,-3.570077 -2.707866,-0.659545 -2.760833,-4.40292 -2.971023,-6.721289 -0.210189,-2.318368 0.794197,-4.238758 2.682653,-5.540892 1.888457,-1.302135 10.242775,-2.234634 12.264108,-1.187916 2.021332,1.046718 1.910101,5.957536 1.812828,8.652079 -0.09727,2.694542 -1.609959,6.671813 -3.648175,8.368095 z"
       inkscape:transform-center-x="-0.41870735"
       inkscape:transform-center-y="-0.21957011"
       transform="translate(-6.7175144,-2.4748737)" />
    <path
       sodipodi:type="star"
       style="fill:url(#radialGradient27);fill-opacity:1;stroke:url(#linearGradient17);stroke-width:3;stroke-linecap:butt;stroke-linejoin:round;stroke-dasharray:none;stroke-opacity:1;paint-order:markers stroke fill"
       id="path5"
       inkscape:flatsided="false"
       sodipodi:sides="3"
       sodipodi:cx="60.104076"
       sodipodi:cy="52.325901"
       sodipodi:r1="9.3407707"
       sodipodi:r2="7.333271"
       sodipodi:arg1="1.056345"
       sodipodi:arg2="2.1035426"
       inkscape:rounded="0.27926979"
       inkscape:randomized="0.2285684"
       d="m 62.932353,61.616033 c -1.575146,1.598095 -6.136088,-1.310856 -8.165789,-2.372168 -2.029701,-1.061311 -5.255747,-3.833145 -5.078937,-6.223821 0.176811,-2.390676 4.623188,-7.741444 6.670603,-8.912425 2.047414,-1.170981 8.519202,-0.491851 10.048345,1.373669 1.529142,1.865521 -0.600273,3.644283 -0.219659,5.919058 0.380614,2.274775 -1.679418,8.617591 -3.254563,10.215687 z"
       inkscape:transform-center-x="1.7805125"
       inkscape:transform-center-y="0.48117522"
       transform="translate(4.9497474,8.131728)" />
    <path
       sodipodi:type="star"
       style="fill:url(#radialGradient33);fill-opacity:1;stroke:url(#linearGradient9);stroke-width:3;stroke-linecap:butt;stroke-linejoin:round;stroke-dasharray:none;stroke-opacity:1;paint-order:markers stroke fill"
       id="path6"
       inkscape:flatsided="false"
       sodipodi:sides="3"
       sodipodi:cx="20.152542"
       sodipodi:cy="27.577166"
       sodipodi:r1="10.29563"
       sodipodi:r2="8.0829134"
       sodipodi:arg1="-0.27829966"
       sodipodi:arg2="0.76889789"
       inkscape:rounded="0.27926979"
       inkscape:randomized="0.2285684"
       d="m 29.259658,23.187156 c -0.149919,2.737536 -0.86317,8.809853 -2.660699,10.554325 -1.797529,1.744473 -8.085813,4.545255 -10.726748,4.132946 -2.640935,-0.412309 -0.17919,-3.588242 -1.229233,-5.955871 -1.050043,-2.367629 -4.661127,-11.073941 -3.504192,-13.305369 1.156935,-2.231427 10.600482,-0.742617 13.302954,0.108057 2.702472,0.850675 4.967836,1.728376 4.817918,4.465912 z"
       inkscape:transform-center-x="0.062751277"
       inkscape:transform-center-y="0.10119539"
       transform="translate(8.4852816,11.313709)" />
    <path
       sodipodi:type="star"
       style="fill:url(#radialGradient29);stroke:url(#linearGradient15);stroke-width:3;stroke-linecap:butt;stroke-linejoin:round;stroke-dasharray:none;stroke-opacity:1;paint-order:markers stroke fill"
       id="path7"
       inkscape:flatsided="false"
       sodipodi:sides="3"
       sodipodi:cx="65.407379"
       sodipodi:cy="37.123104"
       sodipodi:r1="10.111874"
       sodipodi:r2="7.9386501"
       sodipodi:arg1="0.63650822"
       sodipodi:arg2="1.6837058"
       inkscape:rounded="0.27926979"
       inkscape:randomized="0.2285684"
       d="m 71.47111,44.233232 c -1.399787,2.210462 -4.883161,-0.501345 -7.237953,-1.018444 -2.354792,-0.5171 -7.081608,2.820033 -7.468877,0.07574 -0.387269,-2.744293 -0.265354,-10.515577 1.088866,-12.698919 1.354221,-2.183342 5.244185,-4.305168 7.67029,-4.443736 2.426106,-0.138568 5.173358,5.204649 6.072967,7.328076 0.899609,2.123426 1.274495,8.54682 -0.125293,10.757282 z"
       inkscape:transform-center-x="0.92187869"
       inkscape:transform-center-y="-1.506204"
       transform="translate(1.9445437,-0.1767767)" />
    <path
       sodipodi:type="star"
       style="fill:url(#radialGradient31);fill-opacity:1;stroke:url(#linearGradient11);stroke-width:3;stroke-linecap:butt;stroke-linejoin:round;stroke-dasharray:none;stroke-opacity:1;paint-order:markers stroke fill"
       id="path8"
       inkscape:flatsided="false"
       sodipodi:sides="3"
       sodipodi:cx="43.133514"
       sodipodi:cy="46.315495"
       sodipodi:r1="7.7540312"
       sodipodi:r2="6.0875502"
       sodipodi:arg1="0.42285393"
       sodipodi:arg2="1.4700515"
       inkscape:rounded="0.27926979"
       inkscape:randomized="0.2285684"
       d="m 50.276108,48.434288 c -1.323585,1.618538 -3.869708,4.378361 -5.920654,3.982457 -2.050945,-0.395904 -7.099775,0.373906 -8.297372,-1.185976 -1.197597,-1.559882 -0.188543,-6.892353 0.942843,-8.617973 1.131386,-1.72562 5.259408,-1.965017 6.981719,-2.294326 1.722311,-0.32931 3.829981,0.855926 5.032533,2.139455 1.202553,1.283529 2.584515,4.357825 1.260931,5.976363 z"
       inkscape:transform-center-x="-0.033162517"
       inkscape:transform-center-y="0.043467821"
       transform="translate(3.1819805,-0.70710678)" />
  </g>
  <g
     inkscape:groupmode="layer"
     id="layer3"
     inkscape:label="Layer 2" />
</svg>
